<?xml version="1.0" standalone="no"?>
<!DOCTYPE svg PUBLIC "-//W3C//DTD SVG 20010904//EN"
 "http://www.w3.org/TR/2001/REC-SVG-20010904/DTD/svg10.dtd">
<svg version="1.0" xmlns="http://www.w3.org/2000/svg"
 width="700.000000pt" height="700.000000pt" viewBox="0 0 700.000000 700.000000"
 preserveAspectRatio="xMidYMid meet">
<metadata>
Created by potrace 1.14, written by Peter Selinger 2001-2017
</metadata>
<g transform="translate(0.000000,700.000000) scale(0.100000,-0.100000)"
fill="#000000" stroke="none">
<path d="M2055 4874 c-158 -35 -286 -105 -387 -212 -118 -126 -168 -261 -168
-456 0 -354 168 -525 735 -751 289 -115 416 -187 517 -292 67 -71 95 -123 114
-212 45 -212 -33 -408 -199 -506 -115 -67 -288 -99 -460 -84 -293 26 -515 213
-583 492 -10 38 -22 67 -29 67 -16 0 -255 -57 -260 -62 -2 -2 5 -40 16 -83 88
-341 364 -587 733 -651 69 -12 131 -15 256 -11 201 6 292 26 439 98 87 42 117
64 181 128 124 124 185 268 197 466 9 164 -24 318 -91 425 -104 165 -304 298
-661 439 -308 122 -438 193 -527 289 -59 63 -84 112 -99 196 -39 212 115 424
346 476 71 16 220 13 289 -5 134 -35 276 -138 354 -255 l40 -59 113 71 c63 38
115 71 116 72 1 1 -18 32 -42 69 -114 169 -277 285 -480 342 -87 24 -366 30
-460 9z"/>
<path d="M3820 3501 l0 -1361 135 0 135 0 2 603 3 602 279 0 280 0 345 -600
346 -600 158 -3 c93 -1 157 1 157 7 0 5 -162 281 -361 613 -198 331 -361 606
-362 611 -1 4 27 18 63 31 351 125 510 391 478 799 -14 179 -93 349 -211 452
-60 52 -173 113 -267 143 -148 48 -218 54 -712 59 l-468 5 0 -1361z m895 1088
c330 -40 486 -198 486 -489 0 -229 -93 -369 -293 -444 -114 -43 -192 -51 -513
-51 l-300 0 -3 498 -2 497 267 0 c148 0 309 -5 358 -11z"/>
</g>
</svg>
