<?xml version="1.0" encoding="UTF-8" standalone="no"?>
<!DOCTYPE svg PUBLIC "-//W3C//DTD SVG 1.1//EN" "http://www.w3.org/Graphics/SVG/1.1/DTD/svg11.dtd">
<svg width="100%" height="100%" viewBox="0 0 1080 1080" version="1.1" xmlns="http://www.w3.org/2000/svg" xmlns:xlink="http://www.w3.org/1999/xlink" xml:space="preserve" xmlns:serif="http://www.serif.com/" style="fill-rule:evenodd;clip-rule:evenodd;stroke-linejoin:round;stroke-miterlimit:2;">
    <g transform="matrix(1,2.44929e-16,-2.44929e-16,1,-249.498,300.183)">
        <g transform="matrix(600,0,0,600,425.598,448.917)">
            <path d="M0.294,0.01C0.438,0.01 0.519,-0.065 0.519,-0.182C0.519,-0.279 0.475,-0.335 0.32,-0.394C0.21,-0.436 0.162,-0.47 0.162,-0.534C0.162,-0.593 0.214,-0.643 0.287,-0.643C0.347,-0.643 0.398,-0.611 0.428,-0.557L0.488,-0.594C0.446,-0.668 0.377,-0.707 0.289,-0.707C0.171,-0.707 0.091,-0.637 0.091,-0.531C0.091,-0.44 0.14,-0.39 0.281,-0.337C0.404,-0.29 0.447,-0.251 0.447,-0.176C0.447,-0.107 0.396,-0.054 0.295,-0.054C0.201,-0.054 0.133,-0.111 0.12,-0.201L0.049,-0.184C0.068,-0.067 0.165,0.01 0.294,0.01Z" style="fill-rule:nonzero;"/>
        </g>
        <g transform="matrix(600,0,0,600,769.998,448.917)">
            <path d="M0.59,-0L0.4,-0.318C0.494,-0.343 0.543,-0.406 0.543,-0.504C0.543,-0.63 0.463,-0.697 0.313,-0.697L0.114,-0.697L0.114,-0L0.185,-0L0.185,-0.309L0.329,-0.309L0.507,-0L0.59,-0ZM0.185,-0.375L0.185,-0.631L0.306,-0.631C0.416,-0.631 0.471,-0.588 0.471,-0.503C0.471,-0.418 0.416,-0.375 0.306,-0.375L0.185,-0.375Z" style="fill-rule:nonzero;"/>
        </g>
    </g>
</svg>
